HIERARCHY
ROOT Root
{
  OFFSET 0.0 0.0 0.0
  CHANNELS 6 Xposition Yposition Zposition Zrotation Yrotation Xrotation
  JOINT Hips
  {
    OFFSET 0.0 100.0 0.0
    CHANNELS 6 Xposition Yposition Zposition Zrotation Yrotation Xrotation
    JOINT Spine1
    {
      OFFSET -0.013727 5.003763 -0.053727
      CHANNELS 3 Zrotation Yrotation Xrotation
      JOINT Spine2
      {
        OFFSET -0.0 7.125301 -0.029825
        CHANNELS 3 Zrotation Yrotation Xrotation
        JOINT Chest
        {
          OFFSET -1e-06 7.550063 -0.815971
          CHANNELS 3 Zrotation Yrotation Xrotation
          JOINT Neck1
          {
            OFFSET -0.181677 26.311295 -0.553348
            CHANNELS 3 Zrotation Yrotation Xrotation
            JOINT Neck2
            {
              OFFSET -3e-06 7.709397 2.302585
              CHANNELS 3 Zrotation Yrotation Xrotation
              JOINT Head
              {
                OFFSET -5e-06 6.128916 1.953709
                CHANNELS 3 Zrotation Yrotation Xrotation
                JOINT HeadEnd
                {
                  OFFSET 0.003598 16.065403 -1.835379
                  CHANNELS 3 Zrotation Yrotation Xrotation
                }
                JOINT Jaw
                {
                  OFFSET 0.002637 0.475592 3.094941
                  CHANNELS 3 Zrotation Yrotation Xrotation
                }
                JOINT LeftEye
                {
                  OFFSET 3.206381 5.380205 7.586883
                  CHANNELS 3 Zrotation Yrotation Xrotation
                }
                JOINT RightEye
                {
                  OFFSET -3.22244 5.361869 7.558234
                  CHANNELS 3 Zrotation Yrotation Xrotation
                }
              }
            }
          }
          JOINT LeftShoulder
          {
            OFFSET 1.621652 23.237164 5.113413
            CHANNELS 3 Zrotation Yrotation Xrotation
            JOINT LeftArm
            {
              OFFSET 14.919846 2e-06 -5.502326
              CHANNELS 3 Zrotation Yrotation Xrotation
              JOINT LeftForeArm
              {
                OFFSET 28.739307 0.0 -0.002588
                CHANNELS 3 Zrotation Yrotation Xrotation
                JOINT LeftHand
                {
                  OFFSET 27.093981 -1e-06 0.002609
                  CHANNELS 3 Zrotation Yrotation Xrotation
                  JOINT LeftHandThumb1
                  {
                    OFFSET 2.276482 -1.392045 3.191413
                    CHANNELS 3 Zrotation Yrotation Xrotation
                    JOINT LeftHandThumb2
                    {
                      OFFSET 4.012836 -1.828127 1.641654
                      CHANNELS 3 Zrotation Yrotation Xrotation
                      JOINT LeftHandThumb3
                      {
                        OFFSET 2.798515 0.0 -3e-06
                        CHANNELS 3 Zrotation Yrotation Xrotation
                        JOINT LeftHandThumbEnd
                        {
                          OFFSET 3.180793 -4e-06 4e-06
                          CHANNELS 3 Zrotation Yrotation Xrotation
                        }
                      }
                    }
                  }
                  JOINT LeftHandIndex1
                  {
                    OFFSET 3.247555 -0.531998 2.296169
                    CHANNELS 3 Zrotation Yrotation Xrotation
                    JOINT LeftHandIndex2
                    {
                      OFFSET 6.364578 0.01206 0.1786
                      CHANNELS 3 Zrotation Yrotation Xrotation
                      JOINT LeftHandIndex3
                      {
                        OFFSET 3.662364 0.0 0.0
                        CHANNELS 3 Zrotation Yrotation Xrotation
                        JOINT LeftHandIndex4
                        {
                          OFFSET 2.329242 4e-06 4e-06
                          CHANNELS 3 Zrotation Yrotation Xrotation
                          JOINT LeftHandIndexEnd
                          {
                            OFFSET 2.759615 -0.180537 -0.113024
                            CHANNELS 3 Zrotation Yrotation Xrotation
                          }
                        }
                      }
                    }
                  }
                  JOINT LeftHandMiddle1
                  {
                    OFFSET 3.163495 0.240981 1.000332
                    CHANNELS 3 Zrotation Yrotation Xrotation
                    JOINT LeftHandMiddle2
                    {
                      OFFSET 6.19078 -0.259278 -1.002548
                      CHANNELS 3 Zrotation Yrotation Xrotation
                      JOINT LeftHandMiddle3
                      {
                        OFFSET 4.35652 -4e-06 -1e-06
                        CHANNELS 3 Zrotation Yrotation Xrotation
                        JOINT LeftHandMiddle4
                        {
                          OFFSET 2.996877 -8e-06 0.0
                          CHANNELS 3 Zrotation Yrotation Xrotation
                          JOINT LeftHandMiddleEnd
                          {
                            OFFSET 2.304287 -0.294569 -0.031741
                            CHANNELS 3 Zrotation Yrotation Xrotation
                          }
                        }
                      }
                    }
                  }
                  JOINT LeftHandRing1
                  {
                    OFFSET 2.882643 -0.053652 -0.322543
                    CHANNELS 3 Zrotation Yrotation Xrotation
                    JOINT LeftHandRing2
                    {
                      OFFSET 5.854541 -0.486202 -1.373841
                      CHANNELS 3 Zrotation Yrotation Xrotation
                      JOINT LeftHandRing3
                      {
                        OFFSET 4.350578 0.0 3e-06
                        CHANNELS 3 Zrotation Yrotation Xrotation
                        JOINT LeftHandRing4
                        {
                          OFFSET 2.651321 7e-06 2e-06
                          CHANNELS 3 Zrotation Yrotation Xrotation
                          JOINT LeftHandRingEnd
                          {
                            OFFSET 1.936105 0.077687 -7.1e-05
                            CHANNELS 3 Zrotation Yrotation Xrotation
                          }
                        }
                      }
                    }
                  }
                  JOINT LeftHandPinky1
                  {
                    OFFSET 2.8655 -0.310005 -1.600378
                    CHANNELS 3 Zrotation Yrotation Xrotation
                    JOINT LeftHandPinky2
                    {
                      OFFSET 5.087849 -1.331141 -1.77123
                      CHANNELS 3 Zrotation Yrotation Xrotation
                      JOINT LeftHandPinky3
                      {
                        OFFSET 3.070974 4e-06 0.0
                        CHANNELS 3 Zrotation Yrotation Xrotation
                        JOINT LeftHandPinky4
                        {
                          OFFSET 1.549672 0.0 1e-06
                          CHANNELS 3 Zrotation Yrotation Xrotation
                          JOINT LeftHandPinkyEnd
                          {
                            OFFSET 1.944893 -0.157802 0.057219
                            CHANNELS 3 Zrotation Yrotation Xrotation
                          }
                        }
                      }
                    }
                  }
                }
              }
            }
          }
          JOINT RightShoulder
          {
            OFFSET -1.380118 23.180309 5.214158
            CHANNELS 3 Zrotation Yrotation Xrotation
            JOINT RightArm
            {
              OFFSET -15.037196 1.2e-05 -5.545604
              CHANNELS 3 Zrotation Yrotation Xrotation
              JOINT RightForeArm
              {
                OFFSET -28.736639 2e-06 -0.002597
                CHANNELS 3 Zrotation Yrotation Xrotation
                JOINT RightHand
                {
                  OFFSET -27.133619 -0.0 0.002613
                  CHANNELS 3 Zrotation Yrotation Xrotation
                  JOINT RightHandThumb1
                  {
                    OFFSET -2.274032 -1.383988 3.163127
                    CHANNELS 3 Zrotation Yrotation Xrotation
                    JOINT RightHandThumb2
                    {
                      OFFSET -4.011429 -1.827466 1.640914
                      CHANNELS 3 Zrotation Yrotation Xrotation
                      JOINT RightHandThumb3
                      {
                        OFFSET -2.794935 -4e-06 -3e-06
                        CHANNELS 3 Zrotation Yrotation Xrotation
                        JOINT RightHandThumbEnd
                        {
                          OFFSET -3.183852 4e-06 1e-06
                          CHANNELS 3 Zrotation Yrotation Xrotation
                        }
                      }
                    }
                  }
                  JOINT RightHandIndex1
                  {
                    OFFSET -3.253266 -0.520057 2.282866
                    CHANNELS 3 Zrotation Yrotation Xrotation
                    JOINT RightHandIndex2
                    {
                      OFFSET -6.341917 0.012471 0.178266
                      CHANNELS 3 Zrotation Yrotation Xrotation
                      JOINT RightHandIndex3
                      {
                        OFFSET -3.654871 -8e-06 -0.0
                        CHANNELS 3 Zrotation Yrotation Xrotation
                        JOINT RightHandIndex4
                        {
                          OFFSET -2.327586 0.0 1e-06
                          CHANNELS 3 Zrotation Yrotation Xrotation
                          JOINT RightHandIndexEnd
                          {
                            OFFSET -2.76179 -0.180656 -0.113078
                            CHANNELS 3 Zrotation Yrotation Xrotation
                          }
                        }
                      }
                    }
                  }
                  JOINT RightHandMiddle1
                  {
                    OFFSET -3.168106 0.246593 1.00103
                    CHANNELS 3 Zrotation Yrotation Xrotation
                    JOINT RightHandMiddle2
                    {
                      OFFSET -6.180828 -0.258836 -1.000895
                      CHANNELS 3 Zrotation Yrotation Xrotation
                      JOINT RightHandMiddle3
                      {
                        OFFSET -4.348901 0.0 -0.0
                        CHANNELS 3 Zrotation Yrotation Xrotation
                        JOINT RightHandMiddle4
                        {
                          OFFSET -3.00024 -4e-06 -2e-06
                          CHANNELS 3 Zrotation Yrotation Xrotation
                          JOINT RightHandMiddleEnd
                          {
                            OFFSET -2.30252 -0.29437 -0.031706
                            CHANNELS 3 Zrotation Yrotation Xrotation
                          }
                        }
                      }
                    }
                  }
                  JOINT RightHandRing1
                  {
                    OFFSET -2.88569 -0.067952 -0.308858
                    CHANNELS 3 Zrotation Yrotation Xrotation
                    JOINT RightHandRing2
                    {
                      OFFSET -5.854198 -0.48613 -1.373731
                      CHANNELS 3 Zrotation Yrotation Xrotation
                      JOINT RightHandRing3
                      {
                        OFFSET -4.33881 -4e-06 -0.0
                        CHANNELS 3 Zrotation Yrotation Xrotation
                        JOINT RightHandRing4
                        {
                          OFFSET -2.654903 -4e-06 4e-06
                          CHANNELS 3 Zrotation Yrotation Xrotation
                          JOINT RightHandRingEnd
                          {
                            OFFSET -1.933568 0.077527 -5.2e-05
                            CHANNELS 3 Zrotation Yrotation Xrotation
                          }
                        }
                      }
                    }
                  }
                  JOINT RightHandPinky1
                  {
                    OFFSET -2.866425 -0.342796 -1.584145
                    CHANNELS 3 Zrotation Yrotation Xrotation
                    JOINT RightHandPinky2
                    {
                      OFFSET -5.091371 -1.332055 -1.772385
                      CHANNELS 3 Zrotation Yrotation Xrotation
                      JOINT RightHandPinky3
                      {
                        OFFSET -3.062664 -4e-06 1e-06
                        CHANNELS 3 Zrotation Yrotation Xrotation
                        JOINT RightHandPinky4
                        {
                          OFFSET -1.546529 4e-06 -2e-06
                          CHANNELS 3 Zrotation Yrotation Xrotation
                          JOINT RightHandPinkyEnd
                          {
                            OFFSET -1.945119 -0.157718 0.057211
                            CHANNELS 3 Zrotation Yrotation Xrotation
                          }
                        }
                      }
                    }
                  }
                }
              }
            }
          }
        }
      }
    }
    JOINT LeftLeg
    {
      OFFSET 10.043214 -8.434526 2.595655
      CHANNELS 3 Zrotation Yrotation Xrotation
      JOINT LeftShin
      {
        OFFSET -1e-06 -43.221752 -0.802913
        CHANNELS 3 Zrotation Yrotation Xrotation
        JOINT LeftFoot
        {
          OFFSET 1e-06 -42.155094 -3.481523
          CHANNELS 3 Zrotation Yrotation Xrotation
          JOINT LeftToeBase
          {
            OFFSET 0.0 -5.059472 13.231529
            CHANNELS 3 Zrotation Yrotation Xrotation
            JOINT LeftToeEnd
            {
              OFFSET -0.009607 -1.647619 6.513017
              CHANNELS 3 Zrotation Yrotation Xrotation
            }
          }
        }
      }
    }
    JOINT RightLeg
    {
      OFFSET -10.047278 -8.29526 2.620317
      CHANNELS 3 Zrotation Yrotation Xrotation
      JOINT RightShin
      {
        OFFSET 1e-06 -43.362206 -0.805556
        CHANNELS 3 Zrotation Yrotation Xrotation
        JOINT RightFoot
        {
          OFFSET 2e-06 -42.117393 -3.478398
          CHANNELS 3 Zrotation Yrotation Xrotation
          JOINT RightToeBase
          {
            OFFSET -0.0 -5.079609 13.284196
            CHANNELS 3 Zrotation Yrotation Xrotation
            JOINT RightToeEnd
            {
              OFFSET 0.009532 -1.634378 6.460591
              CHANNELS 3 Zrotation Yrotation Xrotation
            }
          }
        }
      }
    }
  }
}
MOTION
Frames: 4
Frame Time: 0.03333333333333333
0.0 0.0 0.0 0.0 -0.0 0.0 1.666458 100.816795 -1.938856 0.217126 0.052536 1.585449 0.63329 0.083724 -0.617418 -0.258332 -0.009469 -4.962596 -1.457967 -1.647586 9.513371 -0.997898 3.124055 0.6147 -0.022931 1.904471 -3.65941 2.269667 1.136525 -16.861427 7.7e-05 -2.2e-05 6e-06 0.020561 0.07152 0.078872 0.660042 -3.707249 -10.496475 -0.620281 3.86152 -10.519288 -23.49214 -0.18652 15.420692 -53.620338 -11.917072 10.305983 -0.156246 -25.808342 0.100298 8.302184 4.890899 -9.882122 -5.882101 9.861278 0.70259 -10.936863 -0.360575 7.156202 1e-06 8.774819 -2e-06 -15.701465 18.268875 6.384742 -1.84403 2.498502 -2.507276 -10.163592 4.678941 4.621107 -20.976006 -2e-06 6e-06 -21.226269 2.451698 -3.593995 -0.0 -6e-06 -1e-06 -1.36268 2.240797 -0.746324 -21.3349 0.584909 3.008324 -13.821204 -1e-06 5e-06 -23.887152 -0.249076 -0.839479 -60.269302 2.455878 -1.173131 -0.294025 1.679687 0.833256 -14.218198 0.093214 1.300582 -34.212021 -0.287562 0.967175 -20.033195 0.964539 1.212847 -1e-06 -1e-06 -1e-06 -3.440386 0.788233 0.501657 -15.928172 -3.167309 2.999707 -6.338821 -0.0 3e-06 -18.123432 3.648182 -4.905663 -6e-06 -0.0 -3e-06 15.764428 3.148299 15.298792 63.178719 13.232011 22.900908 0.595578 25.099503 0.148059 -7.694655 -1.010478 0.80481 2.24354 -5.255033 -3.180155 14.282886 -0.826591 6.952502 -5e-06 -12.690598 -0.0 15.752629 -17.628075 2.826498 1.665664 -1.95592 -2.878299 4.727797 -4.170585 4.993922 11.020522 5e-06 -1e-06 12.109048 -3.735711 -2.866784 -0.0 -0.0 -1e-06 1.291984 -1.928548 -1.498089 14.800125 0.56747 3.86561 14.242564 -1.341732 -6.660655 19.631958 0.143928 -0.648242 49.986423 -0.574752 -6.018331 0.353029 -1.511151 -0.031941 20.222784 3.684312 2.316629 18.787266 8e-06 1e-06 10.751624 -0.479866 1.397906 3e-06 1e-06 2e-06 3.273806 0.305948 -0.58011 21.486809 11.830372 2.266134 8.162924 3e-06 1e-06 18.399075 -3.798981 -4.940567 3e-06 -0.0 -0.0 0.713916 8.422036 -1.174235 -0.026206 -0.159998 1.628715 -3.477675 1.57427 -2.225076 1.654535 -1.947421 -2.690949 -0.0 -0.0 2e-06 -1.022976 -2.685716 0.070169 0.011048 0.112378 2.031174 2.879965 0.771793 -4.136584 -1.444342 0.985402 -1.938564 -0.0 -0.0 -1e-06 
0.0 0.0 0.0 0.0 -0.0 0.0 1.61225 100.843552 -1.943516 0.230567 0.161443 1.600332 0.60334 0.087978 -0.612955 -0.25181 0.019484 -4.986302 -1.470459 -1.664143 9.547353 -0.938196 3.061994 0.614992 -0.070493 1.937892 -3.6632 2.280643 1.023959 -16.813065 7.7e-05 -2.3e-05 6e-06 0.030135 0.091188 0.071562 0.672252 -3.685199 -10.504751 -0.613799 3.879194 -10.536698 -23.482765 -0.158848 15.381795 -53.584454 -11.829809 10.253322 -0.182964 -25.958286 0.08267 8.298576 4.844611 -9.708518 -5.882095 9.861271 0.702589 -10.936854 -0.360576 7.156196 1e-06 8.774815 -2e-06 -15.708341 18.263828 6.393759 -1.84403 2.498501 -2.507274 -10.163585 4.678937 4.621104 -20.975994 -6e-06 3e-06 -21.226254 2.451693 -3.593993 -0.0 -6e-06 -0.0 -1.362679 2.240796 -0.746322 -21.334883 0.584906 3.00832 -13.821191 -3e-06 2e-06 -23.887136 -0.249081 -0.839481 -60.301704 2.462261 -1.139173 -0.294024 1.679685 0.833255 -14.218186 0.093213 1.300579 -34.211994 -0.287566 0.967172 -20.03318 0.964533 1.212843 -1e-06 -1e-06 -2e-06 -3.440383 0.788232 0.501654 -15.928162 -3.167306 2.999704 -6.338816 -2e-06 2e-06 -18.123413 3.648176 -4.905662 -5e-06 -0.0 -3e-06 15.755116 3.120654 15.387918 63.181873 13.128402 22.908607 0.515095 25.00194 0.119751 -7.669262 -1.044539 0.789639 2.243537 -5.25503 -3.180155 14.282876 -0.826592 6.952498 -4e-06 -12.69059 0.0 15.778708 -17.648157 2.807927 1.665663 -1.95592 -2.878299 4.727792 -4.170582 4.993919 11.020513 4e-06 0.0 12.109036 -3.73571 -2.866777 -1e-06 -0.0 -1e-06 1.291984 -1.928547 -1.498088 14.800114 0.56747 3.865605 14.242555 -1.341733 -6.660647 19.631945 0.143926 -0.648241 49.943832 -0.56187 -6.065716 0.353029 -1.51115 -0.031939 20.222769 3.684308 2.316633 18.787254 6e-06 5e-06 10.751618 -0.479868 1.397908 2e-06 2e-06 1e-06 3.273803 0.305947 -0.580109 21.48679 11.830362 2.266131 8.162918 3e-06 2e-06 18.399059 -3.79898 -4.940563 3e-06 0.0 -1e-06 0.720148 8.336758 -1.194595 -0.030751 -0.168528 1.660789 -3.435459 1.602056 -2.261488 1.652755 -1.943728 -2.710866 0.0 0.0 2e-06 -1.010766 -2.656959 0.099423 0.008454 0.067843 2.012693 2.8901 0.733307 -4.195323 -1.44321 0.982301 -2.03293 0.0 0.0 -1e-06 
0.0 0.0 0.0 0.0 -0.0 0.0 1.581729 100.850677 -1.937671 0.23037 0.281618 1.579683 0.592461 0.09688 -0.614319 -0.252659 0.02793 -5.01324 -1.495507 -1.671761 9.604845 -0.85924 3.038178 0.69361 -0.100675 1.922619 -3.670464 2.305763 1.010386 -16.83139 7.7e-05 -2.3e-05 6e-06 0.030444 0.081408 0.069913 0.668794 -3.69726 -10.517694 -0.610094 3.871749 -10.551741 -23.509768 -0.110983 15.368906 -53.51767 -11.738246 10.151088 -0.192105 -26.113089 0.076189 8.295237 4.861789 -9.634957 -5.882105 9.86128 0.70259 -10.936868 -0.360574 7.156205 1e-06 8.774821 -1e-06 -15.727311 18.281092 6.390622 -1.844032 2.498504 -2.507277 -10.163598 4.678943 4.621109 -20.976019 -3e-06 2e-06 -21.226282 2.451696 -3.593999 1e-06 -6e-06 -1e-06 -1.362682 2.240798 -0.746323 -21.334911 0.58491 3.008323 -13.821213 -2e-06 0.0 -23.887159 -0.24908 -0.839483 -60.299595 2.455307 -1.086973 -0.294025 1.679686 0.833256 -14.218207 0.093215 1.30058 -34.212048 -0.287564 0.967169 -20.033211 0.964537 1.212842 -0.0 -0.0 0.0 -3.440387 0.788233 0.501656 -15.928183 -3.167308 2.999707 -6.338825 -0.0 1e-06 -18.123444 3.64818 -4.905669 -5e-06 -0.0 -2e-06 15.785474 3.115328 15.480977 63.178822 13.044665 22.875097 0.445888 24.847021 0.084419 -7.629365 -1.051704 0.874576 2.243538 -5.25503 -3.180155 14.282872 -0.826593 6.952499 -2e-06 -12.690592 0.0 15.794937 -17.662834 2.81275 1.665664 -1.955921 -2.878299 4.727792 -4.170582 4.993918 11.020513 3e-06 0.0 12.109035 -3.735712 -2.86678 -0.0 0.0 -1e-06 1.291983 -1.928547 -1.498088 14.800108 0.56747 3.865607 14.242552 -1.341735 -6.660649 19.631941 0.143926 -0.648242 49.912399 -0.545249 -6.07068 0.353028 -1.511149 -0.031939 20.222765 3.684307 2.316629 18.787249 5e-06 3e-06 10.751616 -0.479869 1.397905 0.0 1e-06 0.0 3.273803 0.305947 -0.580107 21.486786 11.830362 2.266134 8.162916 2e-06 1e-06 18.399059 -3.798982 -4.940566 3e-06 1e-06 1e-06 0.742739 8.271712 -1.157783 -0.027903 -0.176824 1.69493 -3.428191 1.592908 -2.328689 1.651232 -1.94703 -2.674471 0.0 -0.0 2e-06 -0.979591 -2.621194 0.175503 0.005224 0.038493 2.000241 2.845264 0.714225 -4.210305 -1.438432 0.962164 -2.064353 -0.0 -0.0 -1e-06 
0.0 0.0 0.0 0.0 -0.0 0.0 1.551966 100.825691 -1.894088 0.221533 0.362248 1.546963 0.595879 0.107431 -0.628177 -0.255067 0.040537 -5.035735 -1.523364 -1.690506 9.661791 -0.772592 3.051386 0.803512 -0.135503 1.86796 -3.678721 2.335066 1.027315 -16.835514 7.7e-05 -2.3e-05 6e-06 0.02714 0.065115 0.070982 0.657326 -3.71557 -10.526316 -0.605426 3.857345 -10.560547 -23.578493 -0.055144 15.340974 -53.436954 -11.57377 10.0111 -0.193592 -26.313484 0.074378 8.290709 4.912872 -9.650085 -5.882101 9.861277 0.702591 -10.93686 -0.360574 7.1562 -0.0 8.774816 -3e-06 -15.744974 18.28977 6.369596 -1.844031 2.498503 -2.507275 -10.16359 4.678941 4.621105 -20.976004 -2e-06 3e-06 -21.226269 2.451696 -3.593996 -0.0 -6e-06 -1e-06 -1.36268 2.240797 -0.746322 -21.334892 0.58491 3.008323 -13.8212 -1e-06 3e-06 -23.887148 -0.249075 -0.839482 -60.287075 2.425849 -1.060554 -0.294024 1.679684 0.833255 -14.218195 0.093216 1.300581 -34.212013 -0.287559 0.967172 -20.033194 0.964539 1.212844 -0.0 -0.0 -1e-06 -3.440384 0.788233 0.501656 -15.928172 -3.167305 2.999706 -6.33882 0.0 1e-06 -18.123428 3.648181 -4.905664 -4e-06 -0.0 -3e-06 15.827825 3.096384 15.542656 63.1493 12.974027 22.773069 0.411933 24.685648 0.054052 -7.57617 -0.986878 0.97346 2.243538 -5.255032 -3.180154 14.282869 -0.826595 6.952497 0.0 -12.690589 -3e-06 15.789355 -17.67535 2.828636 1.665663 -1.955919 -2.878295 4.727793 -4.170583 4.993915 11.020509 1e-06 2e-06 12.109035 -3.735713 -2.866779 -0.0 0.0 -1e-06 1.291983 -1.928547 -1.498086 14.800105 0.567465 3.865604 14.242549 -1.341738 -6.660649 19.631937 0.14392 -0.648243 49.896126 -0.548686 -6.051157 0.353028 -1.511149 -0.031942 20.222757 3.684301 2.31663 18.787243 0.0 1e-06 10.751613 -0.47987 1.397906 1e-06 1e-06 0.0 3.273801 0.305947 -0.580109 21.486774 11.830355 2.266132 8.162914 1e-06 3e-06 18.399054 -3.798984 -4.940567 3e-06 -0.0 -0.0 0.774046 8.232734 -1.100981 -0.021566 -0.187028 1.73355 -3.443759 1.589566 -2.405852 1.650341 -1.94745 -2.618044 0.0 0.0 2e-06 -0.943767 -2.595739 0.289398 0.002297 0.017039 1.968671 2.811414 0.701845 -4.237841 -1.434557 0.955523 -2.05762 -0.0 -0.0 -1e-06 
